<svg height="512pt" viewBox="0 -60 512 512" width="512pt" xmlns="http://www.w3.org/2000/svg" xmlns:xlink="http://www.w3.org/1999/xlink"><linearGradient id="a" gradientUnits="userSpaceOnUse" x1="256" x2="256" y1="0" y2="391"><stop offset="0" stop-color="#2af598"/><stop offset="1" stop-color="#009efd"/></linearGradient><path d="m492 204c-21.65625 0-38.058594-8.445312-53.183594-27.390625-14.917968-18.683594-26.195312-44.996094-37.097656-70.441406-10.5-24.496094-21.355469-49.824219-35.917969-69.230469-18.394531-24.507812-41.207031-36.9375-67.800781-36.9375h-20v20c0 39.484375-8.636719 65-22 65s-22-25.515625-22-65v-20h-20c-24.828125 0-45.519531 11.648438-63.265625 35.609375-13.679687 18.476563-23.921875 41.757813-34.765625 66.40625-27.105469 61.601563-48.425781 101.984375-95.96875 101.984375h-20v20c0 63.648438 59.375 145.515625 106.175781 165.40625l3.75 1.59375h292.148438l3.746093-1.59375c46.804688-19.890625 106.179688-101.757812 106.179688-165.40625v-20zm-98.441406 147h-275.117188c-29.199218-15.050781-67.03125-66.976562-76.316406-109.070312 61.25-11.964844 88.289062-73.421876 110.453125-123.808594 15.507813-35.246094 27.558594-60.457032 42.628906-71.648438 2.296875 23.21875 7.886719 41.121094 16.90625 54.316406 10.675781 15.613282 26.261719 24.210938 43.886719 24.210938s33.210938-8.597656 43.886719-24.210938c9.203125-13.464843 14.835937-31.832031 17.042969-55.75 18.40625 10.703126 31.335937 37.953126 48.019531 76.886719 11.953125 27.890625 24.3125 56.730469 42.609375 79.644531 17.363281 21.746094 38.265625 35.214844 62.34375 40.21875-9.230469 42.117188-47.113282 94.144532-76.34375 109.210938zm-167.558594-166c0-16.570312 13.429688-30 30-30s30 13.429688 30 30-13.429688 30-30 30-30-13.429688-30-30zm103.671875 66.796875-32.3125 17.847656 32.3125 17.851563-19.34375 35.011718-54.328125-30.015624-54.328125 30.015624-19.34375-35.015624 32.3125-17.847657-32.3125-17.851562 19.34375-35.011719 54.328125 30.015625 54.328125-30.015625zm0 0" fill="url(#a)"/></svg>