<svg height="512" viewBox="0 0 512 512" width="512" xmlns="http://www.w3.org/2000/svg" xmlns:xlink="http://www.w3.org/1999/xlink"><linearGradient id="linear-gradient" gradientUnits="userSpaceOnUse" x1="19.357" x2="564.162" y1="468.434" y2="-76.371"><stop offset="0" stop-color="#003f8a"/><stop offset=".518" stop-color="#00d7df"/><stop offset="1" stop-color="#006df0"/></linearGradient><linearGradient id="linear-gradient-2" x1="7.462" x2="552.266" xlink:href="#linear-gradient" y1="456.538" y2="-88.266"/><linearGradient id="linear-gradient-3" x1="-32.538" x2="512.266" xlink:href="#linear-gradient" y1="416.538" y2="-128.266"/><linearGradient id="linear-gradient-4" x1="-8.538" x2="536.266" xlink:href="#linear-gradient" y1="440.538" y2="-104.266"/><linearGradient id="linear-gradient-5" x1="23.462" x2="568.266" xlink:href="#linear-gradient" y1="472.538" y2="-72.266"/><linearGradient id="linear-gradient-6" x1="43.462" x2="588.266" xlink:href="#linear-gradient" y1="492.538" y2="-52.266"/><g id="Stop"><path d="m455.687 203.871-96.417-160a8 8 0 0 0 -6.852-3.871h-56.418v-24a8 8 0 0 0 -8-8h-64a8 8 0 0 0 -8 8v24h-56.418a8 8 0 0 0 -6.852 3.871l-96.417 160a8 8 0 0 0 0 8.258l96.417 160a8 8 0 0 0 6.852 3.871h72.418v120a8 8 0 0 0 8 8h32a8 8 0 0 0 8-8v-120h72.418a8 8 0 0 0 6.852-3.871l96.417-160a8 8 0 0 0 0-8.258zm-223.687-179.871h48v16h-48zm32 464h-16v-112h16zm83.9-128h-183.8l-91.6-152 91.6-152h183.8l91.6 152z" fill="url(#linear-gradient)"/><path d="m334.34 72h-156.68a8 8 0 0 0 -6.851 3.871l-77.135 128a8 8 0 0 0 0 8.258l77.135 128a8 8 0 0 0 6.851 3.871h156.68a8 8 0 0 0 6.851-3.871l77.135-128a8 8 0 0 0 0-8.258l-77.135-128a8 8 0 0 0 -6.851-3.871zm-4.52 256h-147.64l-72.314-120 72.314-120h147.64l72.314 120z" fill="url(#linear-gradient-2)"/><path d="m192 184a8 8 0 0 0 0-16h-32a8 8 0 0 0 -8 8v32a8 8 0 0 0 8 8h24v16h-24a8 8 0 0 0 0 16h32a8 8 0 0 0 8-8v-32a8 8 0 0 0 -8-8h-24v-16z" fill="url(#linear-gradient-3)"/><path d="m248 168h-32a8 8 0 0 0 0 16h8v56a8 8 0 0 0 16 0v-56h8a8 8 0 0 0 0-16z" fill="url(#linear-gradient-4)"/><path d="m304 168h-32a8 8 0 0 0 -8 8v64a8 8 0 0 0 8 8h32a8 8 0 0 0 8-8v-64a8 8 0 0 0 -8-8zm-8 64h-16v-48h16z" fill="url(#linear-gradient-5)"/><path d="m320 176v64a8 8 0 0 0 16 0v-24h24a8 8 0 0 0 8-8v-32a8 8 0 0 0 -8-8h-32a8 8 0 0 0 -8 8zm16 8h16v16h-16z" fill="url(#linear-gradient-6)"/></g></svg>