<svg id="Capa_1" enable-background="new 0 0 512.001 512.001" height="512" viewBox="0 0 512.001 512.001" width="512" xmlns="http://www.w3.org/2000/svg"><g><g clip-rule="evenodd" fill-rule="evenodd"><g fill="#ff7d95"><path d="m108.4 194.135v-141.735c0-9.02-7.38-16.4-16.4-16.4h-65.6c-9.02 0-16.4 7.38-16.4 16.4v141.747h98.395c.001-.004.003-.008.005-.012z"/><path d="m124.8 36.001c-9.02 0-16.4 7.38-16.4 16.4v141.734c17.94-42.751 53.912-76.065 98.401-90.427v-51.308c0-9.02-7.38-16.4-16.4-16.4h-65.601z"/><path d="m206.8 52.4v51.307c15.5-5.004 32.035-7.707 49.2-7.707s33.7 2.703 49.2 7.707v-51.307c0-9.02-7.38-16.4-16.4-16.4h-65.6c-9.02.001-16.4 7.381-16.4 16.4z"/><path d="m305.201 52.4v51.307c44.488 14.362 80.46 47.676 98.4 90.427v-141.734c0-9.02-7.38-16.4-16.4-16.4h-65.6c-9.021.001-16.4 7.381-16.4 16.4z"/><path d="m403.601 52.4v141.734c.002.004.004.008.005.013h98.395v-141.747c0-9.02-7.38-16.4-16.4-16.4h-65.6c-9.02.001-16.4 7.381-16.4 16.4z"/></g><path d="m502.001 194.147h-98.395c7.983 19.028 12.394 39.925 12.394 61.853s-4.411 42.825-12.394 61.853h98.395z" fill="#eebf50"/><path d="m502.001 317.854h-98.395c-.002.004-.004.008-.005.013v141.735c0 9.02 7.38 16.4 16.4 16.4h65.6c9.02 0 16.4-7.38 16.4-16.4z" fill="#ff7d95"/><path d="m403.601 459.601v-141.735c-17.94 42.751-53.912 76.065-98.4 90.427v51.307c0 9.02 7.38 16.4 16.4 16.4h65.6c9.02 0 16.4-7.379 16.4-16.399z" fill="#ff7d95"/><path d="m305.201 459.601v-51.307c-15.5 5.004-32.035 7.707-49.2 7.707s-33.7-2.703-49.2-7.707v51.307c0 9.02 7.38 16.4 16.4 16.4h65.6c9.02-.001 16.4-7.38 16.4-16.4z" fill="#ff7d95"/><path d="m206.8 459.601v-51.307c-44.488-14.362-80.46-47.676-98.401-90.427v141.735c0 9.02 7.38 16.4 16.4 16.4h65.6c9.022-.002 16.401-7.381 16.401-16.401z" fill="#ff7d95"/><path d="m108.4 459.601v-141.735c-.002-.004-.004-.009-.005-.013h-98.395v141.747c0 9.02 7.38 16.4 16.4 16.4h65.6c9.02 0 16.4-7.379 16.4-16.399z" fill="#ff7d95"/><path d="m10 317.854h98.395c-7.984-19.028-12.395-39.926-12.395-61.853 0-21.928 4.411-42.825 12.394-61.853h-98.394z" fill="#eebf50"/><path d="m96 256.001c0 21.928 4.411 42.825 12.394 61.853h.005v.013c17.94 42.751 53.912 76.065 98.401 90.427 15.5 5.004 32.035 7.707 49.2 7.707s33.7-2.703 49.2-7.707c44.488-14.362 80.46-47.676 98.4-90.427v-.013h.005c7.983-19.028 12.394-39.926 12.394-61.853 0-21.928-4.411-42.825-12.394-61.853h-.005v-.013c-17.94-42.751-53.912-76.065-98.4-90.427-15.5-5.005-32.034-7.708-49.199-7.708s-33.7 2.703-49.2 7.707c-44.488 14.362-80.46 47.676-98.401 90.427v.013h-.005c-7.984 19.029-12.395 39.926-12.395 61.854zm40 0c0-66.274 53.726-120 120-120s120 53.726 120 120-53.726 120-120 120-120-53.726-120-120z" fill="#878eab"/><ellipse cx="256.001" cy="256.001" fill="#d9f4fc" rx="120" ry="120" transform="matrix(.707 -.707 .707 .707 -106.039 256.001)"/></g><g><path d="m485.602 26h-65.601c-6.192 0-11.893 2.143-16.4 5.726-4.507-3.583-10.208-5.726-16.4-5.726h-65.6c-6.192 0-11.893 2.143-16.4 5.726-4.507-3.583-10.208-5.726-16.4-5.726h-65.601c-6.192 0-11.893 2.143-16.4 5.726-4.507-3.583-10.208-5.726-16.4-5.726h-65.6c-6.192 0-11.893 2.143-16.4 5.726-4.507-3.583-10.208-5.726-16.4-5.726h-65.6c-14.557 0-26.4 11.843-26.4 26.4v407.201c0 14.557 11.843 26.399 26.4 26.399h65.6c6.192 0 11.893-2.143 16.4-5.726 4.507 3.583 10.208 5.726 16.4 5.726h65.6c6.192 0 11.893-2.143 16.4-5.726 4.507 3.583 10.208 5.726 16.4 5.726h65.601c6.192 0 11.893-2.143 16.4-5.726 4.507 3.583 10.208 5.726 16.4 5.726h65.6c6.192 0 11.893-2.143 16.4-5.726 4.507 3.583 10.208 5.726 16.4 5.726h65.601c14.557 0 26.399-11.843 26.399-26.399v-407.201c0-14.557-11.843-26.4-26.399-26.4zm6.399 281.854h-74.097c5.25-16.355 8.096-33.777 8.096-51.854s-2.847-35.498-8.097-51.853h74.097v103.707zm-72-261.854h65.601c3.469 0 6.399 2.931 6.399 6.4v131.747h-78.4v-131.747c0-.001 0-.003 0-.005.003-3.467 2.932-6.395 6.4-6.395zm-98.4 0h65.6c3.469 0 6.4 2.931 6.4 6.4v.01 103.884c-19.539-26.891-46.752-47.858-78.4-59.653v-44.241c0-3.469 2.93-6.4 6.4-6.4zm-98.401 0h65.601c3.469 0 6.4 2.931 6.4 6.4v38.17c-12.589-2.982-25.712-4.57-39.201-4.57-13.307 0-26.421 1.531-39.2 4.554v-38.154c0-3.469 2.931-6.4 6.4-6.4zm-98.4 0h65.6c3.469 0 6.4 2.931 6.4 6.4v44.218c-.539.2-1.081.393-1.618.599-5.157 1.977-7.735 7.759-5.759 12.917s7.759 7.736 12.917 5.759c17.128-6.564 35.182-9.893 53.66-9.893 82.71 0 150 67.29 150 150s-67.29 150-150 150-150-67.29-150-150c0-20.018 3.881-39.427 11.372-57.458.185-.377.348-.766.485-1.167 4.646-10.918 10.623-21.321 17.878-31.034 3.305-4.425 2.397-10.691-2.027-13.996-4.424-3.306-10.691-2.398-13.996 2.027-.444.594-.877 1.195-1.312 1.793v-103.765c0-3.469 2.931-6.4 6.4-6.4zm-104.8 158.147h74.026c-5.298 16.576-8.026 34.002-8.026 51.853 0 18.076 2.847 35.498 8.097 51.853h-74.097zm0-151.747c0-3.469 2.931-6.4 6.4-6.4h65.6c3.469 0 6.4 2.931 6.4 6.4v131.747h-78.4zm72 413.6h-65.6c-3.469 0-6.4-2.931-6.4-6.399v-131.747h78.4v131.748c0 3.468-2.931 6.398-6.4 6.398zm98.4 0h-65.6c-3.469 0-6.4-2.931-6.4-6.399v-103.894c19.539 26.891 46.752 47.858 78.4 59.653v44.241c0 3.469-2.93 6.399-6.4 6.399zm98.401 0h-65.601c-3.469 0-6.4-2.931-6.4-6.399v-38.17c12.589 2.983 25.712 4.57 39.2 4.57s26.611-1.587 39.2-4.57v38.17c.001 3.469-2.93 6.399-6.399 6.399zm98.4 0h-65.6c-3.469 0-6.4-2.931-6.4-6.399v-44.241c31.648-11.795 58.861-32.762 78.4-59.653v103.884.01c0 3.469-2.931 6.399-6.4 6.399zm104.8-6.399c0 3.469-2.931 6.399-6.399 6.399h-65.601c-3.468 0-6.397-2.928-6.4-6.395 0-.002 0-.003 0-.005v-131.746h78.4z"/><path d="m126 256c0 71.682 58.318 130 130 130s130-58.318 130-130-58.318-130-130-130-130 58.318-130 130zm66.589-89.833 2.451 4.244c1.852 3.208 5.213 5.002 8.669 5.002 1.696 0 3.416-.433 4.991-1.342 4.783-2.761 6.422-8.877 3.66-13.66l-2.464-4.268c11.156-5.172 23.318-8.526 36.105-9.684v4.938c0 5.523 4.477 10 10 10s10-4.477 10-10v-4.938c12.787 1.158 24.949 4.512 36.106 9.683l-2.465 4.269c-2.762 4.783-1.123 10.899 3.66 13.66 1.575.909 3.294 1.342 4.991 1.342 3.456 0 6.817-1.794 8.669-5.002l2.451-4.245c10.232 7.244 19.178 16.189 26.422 26.422l-4.245 2.451c-4.783 2.761-6.422 8.877-3.66 13.66 1.852 3.208 5.213 5.002 8.669 5.002 1.696 0 3.416-.433 4.991-1.342l4.269-2.465c5.172 11.156 8.526 23.318 9.683 36.106h-4.938c-5.523 0-10 4.477-10 10s4.477 10 10 10h4.938c-1.158 12.787-4.512 24.949-9.683 36.106l-4.269-2.465c-4.783-2.762-10.898-1.123-13.66 3.66s-1.123 10.899 3.66 13.66l4.245 2.451c-7.244 10.232-16.19 19.178-26.422 26.422l-2.451-4.245c-2.761-4.784-8.878-6.422-13.66-3.66-4.783 2.761-6.422 8.877-3.66 13.66l2.465 4.269c-11.156 5.172-23.318 8.525-36.106 9.683v-4.938c0-5.523-4.477-10-10-10s-10 4.477-10 10v4.938c-12.787-1.158-24.949-4.512-36.105-9.684l2.464-4.268c2.762-4.783 1.123-10.899-3.66-13.66-4.782-2.761-10.898-1.123-13.66 3.66l-2.451 4.244c-10.232-7.244-19.177-16.189-26.421-26.421l4.244-2.451c4.783-2.761 6.422-8.877 3.66-13.66-2.761-4.784-8.877-6.422-13.66-3.66l-4.268 2.464c-5.172-11.156-8.526-23.318-9.684-36.105h4.938c5.523 0 10-4.477 10-10s-4.477-10-10-10h-4.938c1.158-12.787 4.512-24.949 9.684-36.105l4.268 2.464c1.575.909 3.294 1.342 4.991 1.342 3.456 0 6.817-1.794 8.669-5.002 2.762-4.783 1.123-10.899-3.66-13.66l-4.244-2.451c7.243-10.232 16.189-19.177 26.421-26.421z"/><path d="m256 266h44.601c5.523 0 10-4.477 10-10s-4.477-10-10-10h-34.601v-54.602c0-5.523-4.477-10-10-10s-10 4.477-10 10v64.602c0 5.523 4.478 10 10 10z"/><path d="m159.428 138.421c5.523 0 10-4.477 10-10s-4.477-10-10-10h-.007c-5.523 0-9.996 4.477-9.996 10s4.48 10 10.003 10z"/></g></g></svg>